<?xml version="1.0" standalone="no"?>
<!DOCTYPE svg PUBLIC "-//W3C//DTD SVG 20010904//EN"
 "http://www.w3.org/TR/2001/REC-SVG-20010904/DTD/svg10.dtd">
<svg version="1.0" xmlns="http://www.w3.org/2000/svg"
 width="949.000000pt" height="949.000000pt" viewBox="0 0 949.000000 949.000000"
 preserveAspectRatio="xMidYMid meet">

<g transform="translate(0.000000,949.000000) scale(0.100000,-0.100000)"
fill="#000000" stroke="none">
<path d="M4360 8659 c-374 -31 -738 -180 -1000 -411 -403 -354 -605 -917 -559
-1558 10 -144 9 -179 -5 -268 -43 -274 -3 -413 141 -489 56 -30 151 -63 181
-63 8 0 -3 13 -24 28 -54 40 -103 98 -127 151 -28 64 -20 160 24 274 18 48 36
87 40 87 3 0 9 -29 11 -64 7 -79 49 -175 104 -236 22 -24 89 -80 149 -125 116
-86 192 -160 219 -214 l17 -32 -52 -23 c-58 -25 -54 -31 30 -42 l49 -6 22 -62
c96 -263 241 -406 576 -567 82 -40 188 -96 237 -126 207 -128 382 -176 526
-142 177 41 328 202 430 462 42 105 38 109 -8 10 -84 -177 -194 -309 -300
-360 -74 -35 -183 -42 -267 -18 -77 22 -193 83 -269 141 -103 78 -160 111
-352 205 -179 87 -188 93 -267 172 -59 60 -95 109 -133 178 -29 52 -53 103
-53 112 0 12 11 20 31 24 17 3 49 23 70 43 34 32 39 43 39 82 0 24 -2 47 -5
50 -3 3 -25 -5 -50 -17 -25 -13 -67 -26 -95 -30 -27 -4 -52 -11 -56 -16 -3 -5
-30 18 -61 51 -31 33 -115 108 -188 165 -187 147 -261 237 -310 374 -14 40
-13 40 68 -42 139 -141 287 -197 485 -183 146 10 263 40 627 159 255 83 381
109 560 114 451 15 880 -138 1092 -389 109 -129 155 -251 154 -418 0 -173 -60
-351 -182 -540 -107 -165 -133 -195 -498 -565 -306 -310 -380 -400 -457 -560
-62 -127 -84 -223 -84 -360 0 -298 158 -599 515 -980 l66 -70 -80 155 c-43 85
-93 193 -110 240 -161 446 -100 814 204 1220 34 47 145 182 246 300 267 314
350 431 444 620 103 207 138 343 138 545 0 112 -4 156 -21 217 -96 351 -396
606 -822 699 -284 62 -534 43 -934 -70 -382 -109 -520 -134 -731 -135 -84 0
-183 6 -225 13 -146 26 -306 88 -422 165 l-48 31 0 135 c0 394 108 749 309
1020 325 437 901 625 1521 496 675 -141 1281 -615 1522 -1192 104 -247 148
-430 193 -794 37 -304 100 -568 240 -1015 167 -530 198 -634 239 -811 72 -307
96 -492 103 -799 6 -279 -9 -486 -52 -732 -13 -76 -23 -139 -21 -140 1 -2 37
68 79 154 316 656 397 1200 260 1748 -40 161 -97 322 -215 605 -241 578 -291
746 -338 1135 -54 449 -151 792 -307 1085 -99 187 -192 313 -345 468 -416 423
-969 685 -1545 732 -139 11 -202 11 -343 -1z"/>
<path d="M4553 6248 c-19 -40 -96 -120 -148 -154 -66 -42 -143 -64 -221 -64
l-63 0 -6 -44 c-13 -84 11 -97 130 -75 182 33 309 152 322 300 6 63 2 72 -14
37z"/>
<path d="M2955 5660 c-283 -26 -579 -158 -738 -329 -108 -117 -177 -246 -218
-406 -31 -123 -31 -314 0 -430 55 -209 173 -361 348 -452 126 -65 166 -77 353
-108 237 -39 300 -61 300 -107 0 -10 -41 -99 -90 -198 -241 -481 -362 -794
-427 -1100 -24 -109 -27 -149 -27 -310 -1 -163 2 -194 22 -263 90 -313 315
-485 729 -558 182 -33 545 -33 813 0 102 12 186 24 187 25 2 1 -81 8 -185 14
-549 35 -906 150 -1122 362 -253 249 -294 605 -126 1103 64 192 130 341 318
720 92 186 168 349 168 362 0 38 -36 54 -197 87 -167 34 -262 67 -376 132
-353 202 -469 536 -301 873 98 199 286 347 513 404 73 18 105 20 250 17 189
-5 243 -19 329 -88 90 -71 170 -227 223 -436 l23 -90 45 -19 c68 -28 154 -118
176 -184 40 -121 -11 -268 -131 -380 -56 -53 -62 -61 -37 -55 219 53 354 236
308 417 -28 110 -113 193 -224 220 -45 10 -51 15 -46 32 4 11 10 39 14 62 l8
42 -30 -15 c-16 -9 -30 -14 -32 -12 -2 2 -8 37 -14 78 -36 232 -163 442 -318
523 -109 56 -305 83 -488 67z"/>
<path d="M3604 4909 c-10 -12 -36 -30 -56 -40 -44 -23 -68 -54 -68 -91 0 -34
16 -44 30 -19 15 29 91 71 128 71 24 0 32 4 32 18 0 23 -19 42 -42 42 -16 0
-17 3 -8 20 14 26 8 25 -16 -1z"/>
<path d="M6657 3900 c12 -188 8 -745 -6 -910 -53 -640 -160 -1245 -292 -1640
-47 -143 -72 -183 -127 -208 -80 -35 -123 -45 -207 -45 -324 -2 -685 266
-1206 893 -53 63 -114 138 -135 166 -281 365 -433 551 -516 631 -91 87 -169
110 -460 138 -101 10 -205 27 -282 47 -126 32 -238 40 -286 20 -23 -10 -22
-11 16 -11 63 -1 126 -24 235 -86 127 -73 145 -79 336 -111 87 -14 201 -39
253 -56 91 -29 98 -33 166 -104 79 -80 198 -236 459 -599 509 -708 900 -1094
1256 -1240 196 -80 467 -88 583 -16 198 123 367 651 453 1421 22 197 25 895 5
1060 -44 357 -125 618 -232 750 l-20 25 7 -125z"/>
<path d="M2271 2637 c-203 -425 -287 -1017 -189 -1337 57 -186 134 -261 348
-340 321 -120 758 -209 1255 -257 225 -21 779 -24 965 -5 205 21 507 68 498
78 -2 1 -118 12 -258 23 -1099 90 -1492 148 -1878 277 -277 93 -515 243 -609
383 -176 263 -236 774 -131 1126 11 39 29 87 40 108 11 22 17 41 14 44 -2 3
-27 -42 -55 -100z"/>
</g>
</svg>
